<mxfile host="app.diagrams.net" agent="Mozilla/5.0 (Windows NT 10.0; Win64; x64) AppleWebKit/537.36 (KHTML, like Gecko) Chrome/132.0.0.0 Safari/537.36" version="26.0.10">
  <diagram name="Page-1" id="J4CJnYwnqYzhdIzYwqaj">
    <mxGraphModel dx="2220" dy="744" grid="1" gridSize="10" guides="1" tooltips="1" connect="1" arrows="1" fold="1" page="1" pageScale="1" pageWidth="827" pageHeight="1169" math="0" shadow="0">
      <root>
        <mxCell id="0" />
        <mxCell id="1" parent="0" />
        <mxCell id="t-zZ-C6quUxlDi69plBM-1" value="Buggy Project" style="rounded=1;whiteSpace=wrap;html=1;" parent="1" vertex="1">
          <mxGeometry x="354" y="80" width="126" height="70" as="geometry" />
        </mxCell>
        <mxCell id="t-zZ-C6quUxlDi69plBM-2" value="Group Member 1" style="ellipse;whiteSpace=wrap;html=1;fillColor=#b0e3e6;strokeColor=#0e8088;" parent="1" vertex="1">
          <mxGeometry x="-60" y="220" width="120" height="80" as="geometry" />
        </mxCell>
        <mxCell id="t-zZ-C6quUxlDi69plBM-3" value="Group Member 2" style="ellipse;whiteSpace=wrap;html=1;fillColor=#b0e3e6;strokeColor=#0e8088;" parent="1" vertex="1">
          <mxGeometry x="220" y="220" width="120" height="80" as="geometry" />
        </mxCell>
        <mxCell id="t-zZ-C6quUxlDi69plBM-25" style="edgeStyle=orthogonalEdgeStyle;rounded=0;orthogonalLoop=1;jettySize=auto;html=1;exitX=0;exitY=0.5;exitDx=0;exitDy=0;entryX=0.5;entryY=0;entryDx=0;entryDy=0;strokeWidth=2;" parent="1" source="t-zZ-C6quUxlDi69plBM-6" target="t-zZ-C6quUxlDi69plBM-35" edge="1">
          <mxGeometry relative="1" as="geometry">
            <mxPoint x="460" y="270" as="targetPoint" />
            <Array as="points">
              <mxPoint x="560" y="260" />
            </Array>
            <mxPoint x="640" y="230" as="sourcePoint" />
          </mxGeometry>
        </mxCell>
        <mxCell id="t-zZ-C6quUxlDi69plBM-6" value="Sahas" style="shape=hexagon;perimeter=hexagonPerimeter2;whiteSpace=wrap;html=1;fixedSize=1;fillColor=#b0e3e6;strokeColor=#0e8088;" parent="1" vertex="1">
          <mxGeometry x="640" y="220" width="120" height="80" as="geometry" />
        </mxCell>
        <mxCell id="t-zZ-C6quUxlDi69plBM-7" value="" style="endArrow=none;html=1;rounded=0;exitX=0.5;exitY=0;exitDx=0;exitDy=0;entryX=0;entryY=0.5;entryDx=0;entryDy=0;strokeWidth=2;" parent="1" source="t-zZ-C6quUxlDi69plBM-3" target="t-zZ-C6quUxlDi69plBM-1" edge="1">
          <mxGeometry width="50" height="50" relative="1" as="geometry">
            <mxPoint x="304" y="200" as="sourcePoint" />
            <mxPoint x="354" y="120" as="targetPoint" />
          </mxGeometry>
        </mxCell>
        <mxCell id="t-zZ-C6quUxlDi69plBM-8" value="" style="endArrow=none;html=1;rounded=0;exitX=0;exitY=0.5;exitDx=0;exitDy=0;entryX=0.5;entryY=0;entryDx=0;entryDy=0;strokeWidth=2;" parent="1" source="t-zZ-C6quUxlDi69plBM-1" target="t-zZ-C6quUxlDi69plBM-2" edge="1">
          <mxGeometry width="50" height="50" relative="1" as="geometry">
            <mxPoint x="390" y="260" as="sourcePoint" />
            <mxPoint x="390" y="310" as="targetPoint" />
          </mxGeometry>
        </mxCell>
        <mxCell id="t-zZ-C6quUxlDi69plBM-10" value="" style="endArrow=none;dashed=1;html=1;rounded=0;entryX=1;entryY=0.5;entryDx=0;entryDy=0;exitX=0.5;exitY=0;exitDx=0;exitDy=0;strokeWidth=2;" parent="1" source="t-zZ-C6quUxlDi69plBM-6" target="t-zZ-C6quUxlDi69plBM-1" edge="1">
          <mxGeometry width="50" height="50" relative="1" as="geometry">
            <mxPoint x="390" y="260" as="sourcePoint" />
            <mxPoint x="440" y="210" as="targetPoint" />
          </mxGeometry>
        </mxCell>
        <mxCell id="t-zZ-C6quUxlDi69plBM-35" value="&lt;div&gt;PID Control (Subsystem 1)&lt;/div&gt;&lt;div&gt;&lt;div&gt;1.&amp;nbsp;&amp;nbsp;&lt;/div&gt;&lt;/div&gt;" style="shape=process;whiteSpace=wrap;html=1;backgroundOutline=1;fillColor=#d5e8d4;strokeColor=#82b366;" parent="1" vertex="1">
          <mxGeometry x="480" y="330" width="160" height="110" as="geometry" />
        </mxCell>
        <mxCell id="t-zZ-C6quUxlDi69plBM-38" style="edgeStyle=orthogonalEdgeStyle;rounded=0;orthogonalLoop=1;jettySize=auto;html=1;exitX=0.5;exitY=1;exitDx=0;exitDy=0;" parent="1" edge="1">
          <mxGeometry relative="1" as="geometry">
            <mxPoint x="920" y="490" as="sourcePoint" />
            <mxPoint x="920" y="490" as="targetPoint" />
          </mxGeometry>
        </mxCell>
        <mxCell id="t-zZ-C6quUxlDi69plBM-43" value="" style="verticalLabelPosition=bottom;verticalAlign=top;html=1;shape=mxgraph.basic.diag_round_rect;dx=6;whiteSpace=wrap;fillColor=#f8cecc;strokeColor=#b85450;" parent="1" vertex="1">
          <mxGeometry x="760" y="360" width="160" height="80" as="geometry" />
        </mxCell>
        <mxCell id="t-zZ-C6quUxlDi69plBM-45" value="If code has been completed, help with soldering and anything else" style="text;html=1;align=center;verticalAlign=middle;whiteSpace=wrap;rounded=0;" parent="1" vertex="1">
          <mxGeometry x="770" y="370" width="140" height="60" as="geometry" />
        </mxCell>
        <mxCell id="t-zZ-C6quUxlDi69plBM-49" style="edgeStyle=orthogonalEdgeStyle;rounded=0;orthogonalLoop=1;jettySize=auto;html=1;exitX=0.5;exitY=1;exitDx=0;exitDy=0;entryX=0.5;entryY=0;entryDx=0;entryDy=0;" parent="1" target="t-zZ-C6quUxlDi69plBM-6" edge="1">
          <mxGeometry relative="1" as="geometry">
            <mxPoint x="780" y="220" as="targetPoint" />
            <mxPoint x="699.9999999999995" y="100" as="sourcePoint" />
          </mxGeometry>
        </mxCell>
        <mxCell id="t-zZ-C6quUxlDi69plBM-48" value="Computer Engineering" style="rounded=0;whiteSpace=wrap;html=1;fillColor=#d0cee2;strokeColor=#56517e;" parent="1" vertex="1">
          <mxGeometry x="640" y="60" width="120" height="40" as="geometry" />
        </mxCell>
        <mxCell id="t-zZ-C6quUxlDi69plBM-51" style="edgeStyle=orthogonalEdgeStyle;rounded=0;orthogonalLoop=1;jettySize=auto;html=1;exitX=0.5;exitY=1;exitDx=0;exitDy=0;dashed=1;dashPattern=1 2;" parent="1" target="t-zZ-C6quUxlDi69plBM-2" edge="1">
          <mxGeometry relative="1" as="geometry">
            <mxPoint y="140" as="sourcePoint" />
          </mxGeometry>
        </mxCell>
        <mxCell id="t-zZ-C6quUxlDi69plBM-50" value="Electrical and Electronics Engineering" style="rounded=0;whiteSpace=wrap;html=1;fillColor=#fad7ac;strokeColor=#b46504;" parent="1" vertex="1">
          <mxGeometry x="-60" y="60" width="120" height="80" as="geometry" />
        </mxCell>
        <mxCell id="t-zZ-C6quUxlDi69plBM-55" value="" style="endArrow=classic;startArrow=none;html=1;rounded=0;exitX=0.5;exitY=1;exitDx=0;exitDy=0;dashed=1;dashPattern=1 2;startFill=0;" parent="1" edge="1">
          <mxGeometry width="50" height="50" relative="1" as="geometry">
            <mxPoint y="140" as="sourcePoint" />
            <mxPoint x="280" y="220" as="targetPoint" />
          </mxGeometry>
        </mxCell>
        <mxCell id="lNO24yOVD0h_z-2jK7jt-5" style="edgeStyle=orthogonalEdgeStyle;rounded=0;orthogonalLoop=1;jettySize=auto;html=1;exitX=1;exitY=0.5;exitDx=0;exitDy=0;entryX=0.5;entryY=0;entryDx=0;entryDy=0;entryPerimeter=0;strokeWidth=2;" edge="1" parent="1" source="t-zZ-C6quUxlDi69plBM-6" target="t-zZ-C6quUxlDi69plBM-43">
          <mxGeometry relative="1" as="geometry" />
        </mxCell>
      </root>
    </mxGraphModel>
  </diagram>
</mxfile>
